# xmcd
#
# Track frame offsets:
#	150
#	17702
#	29364
#	46406
#	63565
#	82489
#	95314
#	114764
#	132285
#	149843
#	167096
#	182503
#	201601
#	216062
#	231111
#	250105
#	268645
#	284426
#
# Disc length: 4109 seconds
#
# Revision: 0
# Processed by: cddbd v1.5.2PL0 Copyright (c) Steve Scherf et al.
# Submitted via: audiograbber 1.83.01
#
DISCID=10100b12
DTITLE=Top Hits USA T870 - T870
DYEAR=2006
DGENRE=
TTITLE0=Joan Osborne - Who Divided
TTITLE1=Sandi Thom - I Wish I Was A Punk Rocker (With Flowers In My Hair)
TTITLE2=Fergie - Fergalicious
TTITLE3=RBD - Tu Amor
TTITLE4=Goo Goo Dolls - Let Love In
TTITLE5=Vanessa Hudgens - Come Back To Me
TTITLE6=Ben Lee - Catch My Disease
TTITLE7=Bow Wow f/ Chris Brown and Johnta Austin - Shortie Like Mine
TTITLE8=Tamia - Can't Get Enough
TTITLE9=Hawthorne Heights - This Is Who We Are
TTITLE10=Webstar and Young B - Chicken Noodle Soup
TTITLE11=Rhymefest f/ Mario - All Girls Cheat 
TTITLE12=Joan Jett and The Blackhearts - Change The World
TTITLE13=Clay Walker - Fore She Was Mama
TTITLE14=Darryl Worley - I Just Came Back (From A War)
TTITLE15=Pat Green - Dixie Lullaby
TTITLE16=Tom Wurth - Bread On The Table
TTITLE17=Don Omar - Salio El Sol
EXTD=
EXTT0=
EXTT1=
EXTT2=
EXTT3=
EXTT4=
EXTT5=
EXTT6=
EXTT7=
EXTT8=
EXTT9=
EXTT10=
EXTT11=
EXTT12=
EXTT13=
EXTT14=
EXTT15=
EXTT16=
EXTT17=
PLAYORDER=
